<svg width="32" height="32" viewBox="0 0 32 32" fill="none" xmlns="http://www.w3.org/2000/svg">
<g clip-path="url(#clip0_321_293)">
<path opacity="0.3" d="M6.6665 24.4133L10.6665 22.8667V7.26666L6.6665 8.61333V24.4133ZM21.3332 24.7333L25.3332 23.3867V7.58666L21.3332 9.14666V24.7333Z" fill="#323232"/>
<path d="M27.3333 4L27.12 4.04L20 6.8L12 4L4.48 6.53333C4.2 6.62667 4 6.86667 4 7.17333V27.3333C4 27.7067 4.29333 28 4.66667 28L4.88 27.96L12 25.2L20 28L27.52 25.4667C27.8 25.3733 28 25.1333 28 24.8267V4.66667C28 4.29333 27.7067 4 27.3333 4ZM10.6667 22.8667L6.66667 24.4133V8.61333L10.6667 7.26667V22.8667ZM18.6667 24.7067L13.3333 22.84V7.29333L18.6667 9.16V24.7067V24.7067ZM25.3333 23.3867L21.3333 24.7333V9.14667L25.3333 7.6V23.3867Z" fill="#323232"/>
</g>
<defs>
<clipPath id="clip0_321_293">
<rect width="32" height="32" fill="white"/>
</clipPath>
</defs>
</svg>
